<?xml version="1.0" encoding="UTF-8" standalone="no"?>
<svg
   width="50.480469pt"
   height="90.738266pt"
   viewBox="0 0 50.480469 90.738269"
   version="1.1"
   id="svg1050"
   xmlns="http://www.w3.org/2000/svg"
   xmlns:svg="http://www.w3.org/2000/svg">
  <defs
     id="defs41" />
  <path
     fill-rule="nonzero"
     fill="#39b54a"
     fill-opacity="1"
     d="M 5.8828145,9.6288894 25.140627,28.88671 V 9.6288894 Z m 0,0"
     id="path966" />
  <path
     fill-rule="nonzero"
     fill="#39b54a"
     fill-opacity="1"
     d="M 50.48047,-1.0579966e-5 31.218751,19.2578 V -1.0579966e-5 Z m 0,0"
     id="path967" />
  <path
     fill-rule="nonzero"
     fill="#db0d4b"
     fill-opacity="1"
     d="M 25.140627,28.88671 50.281251,54.02733 V 34.7578 l -5.871093,-5.87109 z m 0,0"
     id="path968" />
  <path
     fill-rule="nonzero"
     fill="#db0d4b"
     fill-opacity="1"
     d="M 1.4955852e-6,34.76561 V 54.02733 L 25.140627,28.88671 H 5.8789085 Z m 0,0"
     id="path969" />
  <path
     fill-rule="nonzero"
     fill="#db0d4b"
     fill-opacity="1"
     d="M 1.4955852e-6,84.86717 5.8710955,90.73827 H 25.140627 L 1.4955852e-6,65.59764 Z m 0,0"
     id="path970" />
  <path
     fill-rule="nonzero"
     fill="#db0d4b"
     fill-opacity="1"
     d="m 44.402345,90.73827 5.878906,-5.87891 V 65.59764 L 25.140627,90.73827 Z m 0,0"
     id="path971" />
  <path
     fill-rule="nonzero"
     fill="#db0d4b"
     fill-opacity="1"
     d="m 25.140627,44.70702 -4.667969,4.66015 v 20.88282 l 4.667969,4.66797 15.097656,-15.10938 z m 0,0"
     id="path972" />
</svg>
